<?xml version="1.0" encoding="utf-8"?>
<svg xmlns="http://www.w3.org/2000/svg" xmlns:xlink="http://www.w3.org/1999/xlink" style="margin: auto; background: none; display: block; shape-rendering: auto;" width="207px" height="207px" viewBox="0 0 100 100" preserveAspectRatio="xMidYMid">
<g transform="rotate(0 50 50)">
  <rect x="37.5" y="21" rx="12.5" ry="11" width="25" height="22" fill="#5ac1e2">
    <animate attributeName="opacity" values="1;0" keyTimes="0;1" dur="1.1111111111111112s" begin="-0.9876543209876544s" repeatCount="indefinite"></animate>
  </rect>
</g><g transform="rotate(40 50 50)">
  <rect x="37.5" y="21" rx="12.5" ry="11" width="25" height="22" fill="#1b75be">
    <animate attributeName="opacity" values="1;0" keyTimes="0;1" dur="1.1111111111111112s" begin="-0.8641975308641976s" repeatCount="indefinite"></animate>
  </rect>
</g><g transform="rotate(80 50 50)">
  <rect x="37.5" y="21" rx="12.5" ry="11" width="25" height="22" fill="#008ba9">
    <animate attributeName="opacity" values="1;0" keyTimes="0;1" dur="1.1111111111111112s" begin="-0.7407407407407408s" repeatCount="indefinite"></animate>
  </rect>
</g><g transform="rotate(120 50 50)">
  <rect x="37.5" y="21" rx="12.5" ry="11" width="25" height="22" fill="#5ac1e2">
    <animate attributeName="opacity" values="1;0" keyTimes="0;1" dur="1.1111111111111112s" begin="-0.617283950617284s" repeatCount="indefinite"></animate>
  </rect>
</g><g transform="rotate(160 50 50)">
  <rect x="37.5" y="21" rx="12.5" ry="11" width="25" height="22" fill="#1b75be">
    <animate attributeName="opacity" values="1;0" keyTimes="0;1" dur="1.1111111111111112s" begin="-0.4938271604938272s" repeatCount="indefinite"></animate>
  </rect>
</g><g transform="rotate(200 50 50)">
  <rect x="37.5" y="21" rx="12.5" ry="11" width="25" height="22" fill="#008ba9">
    <animate attributeName="opacity" values="1;0" keyTimes="0;1" dur="1.1111111111111112s" begin="-0.3703703703703704s" repeatCount="indefinite"></animate>
  </rect>
</g><g transform="rotate(240 50 50)">
  <rect x="37.5" y="21" rx="12.5" ry="11" width="25" height="22" fill="#5ac1e2">
    <animate attributeName="opacity" values="1;0" keyTimes="0;1" dur="1.1111111111111112s" begin="-0.2469135802469136s" repeatCount="indefinite"></animate>
  </rect>
</g><g transform="rotate(280 50 50)">
  <rect x="37.5" y="21" rx="12.5" ry="11" width="25" height="22" fill="#1b75be">
    <animate attributeName="opacity" values="1;0" keyTimes="0;1" dur="1.1111111111111112s" begin="-0.1234567901234568s" repeatCount="indefinite"></animate>
  </rect>
</g><g transform="rotate(320 50 50)">
  <rect x="37.5" y="21" rx="12.5" ry="11" width="25" height="22" fill="#008ba9">
    <animate attributeName="opacity" values="1;0" keyTimes="0;1" dur="1.1111111111111112s" begin="0s" repeatCount="indefinite"></animate>
  </rect>
</g>
<!-- [ldio] generated by https://loading.io/ --></svg>