<svg width="30" height="48" viewBox="0 0 30 48" fill="none" xmlns="http://www.w3.org/2000/svg">
<path d="M15.0017 32.9166V1.53789L15.2369 0.742709L29.6894 24.6145L15.2169 33.1304L15.0017 32.9166Z" fill="url(#paint0_linear_692_74)" stroke="black" stroke-width="0.25"/>
<path d="M15.0723 33.0684L0.704714 24.6145L15.0723 0.883726V18.0226V33.0684Z" fill="url(#paint1_linear_692_74)" stroke="black" stroke-width="0.25"/>
<path d="M15.1416 47.4519V36.315L15.2797 36.1474L29.4284 27.8314L15.2365 47.7275L15.1416 47.4519Z" fill="url(#paint2_linear_692_74)" stroke="black" stroke-width="0.25"/>
<path d="M0.974567 27.8315L15.0723 36.1224V47.6071L0.974567 27.8315Z" fill="url(#paint3_linear_692_74)" stroke="black" stroke-width="0.25"/>
<path d="M15.3223 18.2165L29.5908 24.6727L15.3223 33.0685V18.2165Z" fill="url(#paint4_linear_692_74)" stroke="black" stroke-width="0.25"/>
<path d="M15.0723 18.2165V33.0685L0.803379 24.6727L15.0723 18.2165Z" fill="url(#paint5_linear_692_74)" stroke="black" stroke-width="0.25"/>
<defs>
<linearGradient id="paint0_linear_692_74" x1="22.3693" y1="0.435913" x2="22.3693" y2="33.287" gradientUnits="userSpaceOnUse">
<stop stop-color="#25EEFB"/>
<stop offset="1" stop-color="#0A6380"/>
</linearGradient>
<linearGradient id="paint1_linear_692_74" x1="7.86477" y1="0.435913" x2="7.86477" y2="33.287" gradientUnits="userSpaceOnUse">
<stop stop-color="#61CAEB" stop-opacity="0.83"/>
<stop offset="1" stop-color="#004EA9"/>
</linearGradient>
<linearGradient id="paint2_linear_692_74" x1="22.4438" y1="27.4264" x2="22.4438" y2="47.9978" gradientUnits="userSpaceOnUse">
<stop stop-color="#01F0FF"/>
<stop offset="1" stop-color="#3C3C3B" stop-opacity="0"/>
<stop offset="1" stop-color="#054A71" stop-opacity="0.99"/>
</linearGradient>
<linearGradient id="paint3_linear_692_74" x1="7.86477" y1="27.4264" x2="7.86477" y2="47.9978" gradientUnits="userSpaceOnUse">
<stop stop-color="#61CAEB" stop-opacity="0.83"/>
<stop offset="1" stop-color="#004EA9"/>
</linearGradient>
<linearGradient id="paint4_linear_692_74" x1="22.5296" y1="18.0227" x2="22.5296" y2="33.2871" gradientUnits="userSpaceOnUse">
<stop stop-color="#131313"/>
<stop offset="1" stop-color="#141414" stop-opacity="0"/>
</linearGradient>
<linearGradient id="paint5_linear_692_74" x1="7.86477" y1="18.0227" x2="7.86477" y2="33.2871" gradientUnits="userSpaceOnUse">
<stop stop-color="#462C2C"/>
<stop offset="1" stop-color="#393939" stop-opacity="0"/>
</linearGradient>
</defs>
</svg>
