<svg width="780" height="780" viewBox="0 0 780 780" fill="none" xmlns="http://www.w3.org/2000/svg">
<g filter="url(#filter0_d_0_1)">
<mask id="path-1-inside-1_0_1" fill="white">
<path d="M760 390C760 594.345 594.345 760 390 760C185.655 760 20 594.345 20 390C20 185.655 185.655 20 390 20C594.345 20 760 185.655 760 390Z"/>
</mask>
<path d="M752 390C752 589.927 589.927 752 390 752V768C598.764 768 768 598.764 768 390H752ZM390 752C190.073 752 28 589.927 28 390H12C12 598.764 181.236 768 390 768V752ZM28 390C28 190.073 190.073 28 390 28V12C181.236 12 12 181.236 12 390H28ZM390 28C589.927 28 752 190.073 752 390H768C768 181.236 598.764 12 390 12V28Z" fill="white" mask="url(#path-1-inside-1_0_1)"/>
</g>
<g filter="url(#filter1_d_0_1)">
<path d="M665.291 393.442C665.291 546.431 541.268 670.453 388.279 670.453C235.29 670.453 111.267 546.431 111.267 393.442C111.267 240.453 235.29 116.43 388.279 116.43C541.268 116.43 665.291 240.453 665.291 393.442Z" stroke="white" stroke-width="7" stroke-linejoin="round" shape-rendering="crispEdges"/>
</g>
<defs>
<filter id="filter0_d_0_1" x="0" y="0" width="780" height="780" filterUnits="userSpaceOnUse" color-interpolation-filters="sRGB">
<feFlood flood-opacity="0" result="BackgroundImageFix"/>
<feColorMatrix in="SourceAlpha" type="matrix" values="0 0 0 0 0 0 0 0 0 0 0 0 0 0 0 0 0 0 127 0" result="hardAlpha"/>
<feOffset/>
<feGaussianBlur stdDeviation="10"/>
<feComposite in2="hardAlpha" operator="out"/>
<feColorMatrix type="matrix" values="0 0 0 0 0.133333 0 0 0 0 0.792 0 0 0 0 1 0 0 0 1 0"/>
<feBlend mode="normal" in2="BackgroundImageFix" result="effect1_dropShadow_0_1"/>
<feBlend mode="normal" in="SourceGraphic" in2="effect1_dropShadow_0_1" result="shape"/>
</filter>
<filter id="filter1_d_0_1" x="87.7675" y="92.9302" width="601.023" height="601.023" filterUnits="userSpaceOnUse" color-interpolation-filters="sRGB">
<feFlood flood-opacity="0" result="BackgroundImageFix"/>
<feColorMatrix in="SourceAlpha" type="matrix" values="0 0 0 0 0 0 0 0 0 0 0 0 0 0 0 0 0 0 127 0" result="hardAlpha"/>
<feOffset/>
<feGaussianBlur stdDeviation="10"/>
<feComposite in2="hardAlpha" operator="out"/>
<feColorMatrix type="matrix" values="0 0 0 0 0 0 0 0 0 0.437 0 0 0 0 0.575 0 0 0 1 0"/>
<feBlend mode="normal" in2="BackgroundImageFix" result="effect1_dropShadow_0_1"/>
<feBlend mode="normal" in="SourceGraphic" in2="effect1_dropShadow_0_1" result="shape"/>
</filter>
</defs>
</svg>
