<svg width="71" height="62" viewBox="0 0 71 62" fill="none" xmlns="http://www.w3.org/2000/svg">
<path d="M70.2069 0.254898C70.4849 0.479904 70.5477 0.939843 70.3724 1.29886C68.7179 4.58682 67.0673 7.87478 65.4206 11.1627C65.227 11.5499 65.1277 11.6078 64.681 11.5946C64.2343 11.5813 63.7793 11.5797 63.3277 11.5764L34.2473 11.3911L24.9955 11.3398C23.8176 11.3398 22.6396 11.3398 21.4616 11.3133C21.3329 11.302 21.2036 11.3271 21.0884 11.3856C20.9732 11.4441 20.8767 11.5336 20.8098 11.6442C19.827 13.0174 18.8707 14.4121 17.8317 15.7456C16.5396 17.4116 15.1846 19.0247 13.861 20.6659C13.6685 20.9042 13.4906 21.1539 13.3283 21.4138C13.0801 21.8092 12.3456 21.8257 12.1073 21.4138C9.58483 17.1486 7.06509 12.8795 4.5481 8.6066C3.0999 6.15359 1.64949 3.70058 0.19688 1.24757C0.136907 1.15842 0.0711385 1.07331 0 0.992786L0 0.254898H70.2069Z" fill="url(#paint0_linear_2_2170)"/>
<path d="M27.8594 23.7052C27.9355 23.8442 27.9785 23.9302 28.0249 24.0146C33.3191 32.9553 38.6167 41.8932 43.9176 50.8284C44.1724 51.2569 44.1873 51.553 43.906 51.9865C41.8363 55.12 39.7963 58.2734 37.7465 61.4169C37.4619 61.8553 37.0466 61.8537 36.7836 61.4169L26.3539 43.9806C22.2949 37.2061 18.2365 30.4317 14.1787 23.6572C13.7188 22.8912 13.6956 22.9855 14.2498 22.2509C16.5661 19.1891 18.8774 16.1245 21.1837 13.0571C21.2447 12.9698 21.327 12.8996 21.4229 12.8532C21.5188 12.8069 21.625 12.7859 21.7313 12.7924C31.5974 12.8078 41.4629 12.8194 51.3279 12.8271C51.4619 12.8271 51.5943 12.8172 51.7266 12.8172C52.2048 12.8172 52.4447 13.2093 52.2114 13.6295L46.9982 23.0136C46.9287 23.1377 46.8526 23.2601 46.793 23.3908C46.7488 23.496 46.6726 23.5846 46.5752 23.644C46.4778 23.7034 46.3641 23.7306 46.2504 23.7217C42.0811 23.7217 37.9119 23.7179 33.7427 23.7102C31.9195 23.7102 30.0962 23.7102 28.273 23.7102L27.8594 23.7052Z" fill="url(#paint1_linear_2_2170)"/>
<path d="M46.4175 26.9248C46.5201 26.7494 46.5928 26.6303 46.6607 26.5095C48.2043 23.7284 49.7628 20.9571 51.2816 18.1644C52.0559 16.7383 52.7507 15.2708 53.4919 13.8264C53.6161 13.5706 53.7754 13.3334 53.9651 13.1216C54.0967 12.9996 54.2688 12.9307 54.4482 12.9281C57.4693 12.9181 60.4914 12.9181 63.5146 12.9281C63.6685 12.9281 63.8207 12.9281 63.9746 12.9281C64.4411 12.9281 64.6711 13.3169 64.4511 13.7255C63.3481 15.7814 62.249 17.8368 61.1537 19.8917C55.9146 29.6927 50.6755 39.4937 45.4364 49.2947C45.3007 49.5478 45.2296 49.8622 44.8424 49.8721C44.4553 49.882 44.3676 49.571 44.2253 49.3228C40.3539 42.5947 36.4825 35.8666 32.611 29.1384C32.0932 28.2384 31.5836 27.3334 31.0327 26.4532C30.5959 25.7551 31.0658 25.4606 31.6647 25.3067C31.7663 25.2942 31.8691 25.2942 31.9708 25.3067H42.2979C43.3319 25.3067 44.3676 25.3067 45.4016 25.2984C45.536 25.2886 45.6695 25.327 45.778 25.4067C45.8866 25.4865 45.9632 25.6024 45.9939 25.7336C46.1147 26.1091 46.2603 26.4863 46.4175 26.9248Z" fill="url(#paint2_linear_2_2170)"/>
<defs>
<linearGradient id="paint0_linear_2_2170" x1="39.7283" y1="0.915192" x2="39.1782" y2="21.8203" gradientUnits="userSpaceOnUse">
<stop stop-color="#01F0FF"/>
<stop offset="1" stop-color="#05213A"/>
</linearGradient>
<linearGradient id="paint1_linear_2_2170" x1="35.5203" y1="14.2974" x2="30.3364" y2="61.4448" gradientUnits="userSpaceOnUse">
<stop stop-color="#01F0FF"/>
<stop offset="1" stop-color="#05213A"/>
</linearGradient>
<linearGradient id="paint2_linear_2_2170" x1="49.8455" y1="14.0575" x2="46.461" y2="49.755" gradientUnits="userSpaceOnUse">
<stop stop-color="#01F0FF"/>
<stop offset="1" stop-color="#05213A"/>
</linearGradient>
</defs>
</svg>
