<svg width="34" height="37" viewBox="0 0 34 37" fill="none" xmlns="http://www.w3.org/2000/svg">
    <g filter="url(#filter0_d_10_3733)">
    <path fill-rule="evenodd" clip-rule="evenodd" d="M8.6866 0.581598C8.87554 0.330813 9.1713 0.183334 9.48529 0.183334H25.0656C25.3796 0.183334 25.6754 0.330813 25.8643 0.581598L29.7534 5.74365C29.8834 5.91241 29.9607 6.12385 29.9607 6.35333V24.4483C29.9607 25.4006 29.5807 26.3129 28.9056 26.9849C28.2308 27.6567 27.3164 28.0333 26.364 28.0333H8.18693C7.23448 28.0333 6.32013 27.6567 5.64527 26.9849C4.97025 26.3129 4.59021 25.4006 4.59021 24.4483V6.35333C4.59021 6.12384 4.66752 5.9124 4.79752 5.74363L8.6866 0.581598ZM24.567 2.18333L26.9553 5.35333H7.59565L9.98393 2.18333H24.567ZM6.59021 24.4483V7.35333H27.9607V24.4483C27.9607 24.8672 27.7936 25.2699 27.4946 25.5675C27.1955 25.8653 26.7889 26.0333 26.364 26.0333H8.18693C7.762 26.0333 7.35538 25.8652 7.05628 25.5675C6.75733 25.2699 6.59021 24.8672 6.59021 24.4483ZM13.082 11.5233C13.082 10.971 12.6343 10.5233 12.082 10.5233C11.5297 10.5233 11.082 10.971 11.082 11.5233C11.082 13.1612 11.7356 14.731 12.8976 15.8878C14.0595 17.0444 15.6343 17.6933 17.2755 17.6933C18.9166 17.6933 20.4914 17.0444 21.6533 15.8878C22.8153 14.731 23.4689 13.1612 23.4689 11.5233C23.4689 10.971 23.0212 10.5233 22.4689 10.5233C21.9166 10.5233 21.4689 10.971 21.4689 11.5233C21.4689 12.6278 21.0282 13.688 20.2423 14.4704C19.4562 15.2529 18.3891 15.6933 17.2755 15.6933C16.1618 15.6933 15.0947 15.2529 14.3086 14.4704C13.5227 13.688 13.082 12.6278 13.082 11.5233Z" fill="url(#paint0_linear_10_3733)"/>
    </g>
    <defs>
    <filter id="filter0_d_10_3733" x="0.59021" y="0.183334" width="33.3705" height="35.85" filterUnits="userSpaceOnUse" color-interpolation-filters="sRGB">
    <feFlood flood-opacity="0" result="BackgroundImageFix"/>
    <feColorMatrix in="SourceAlpha" type="matrix" values="0 0 0 0 0 0 0 0 0 0 0 0 0 0 0 0 0 0 127 0" result="hardAlpha"/>
    <feOffset dy="4"/>
    <feGaussianBlur stdDeviation="2"/>
    <feComposite in2="hardAlpha" operator="out"/>
    <feColorMatrix type="matrix" values="0 0 0 0 0 0 0 0 0 0 0 0 0 0 0 0 0 0 0.71 0"/>
    <feBlend mode="normal" in2="BackgroundImageFix" result="effect1_dropShadow_10_3733"/>
    <feBlend mode="normal" in="SourceGraphic" in2="effect1_dropShadow_10_3733" result="shape"/>
    </filter>
    <linearGradient id="paint0_linear_10_3733" x1="17.2755" y1="0.183334" x2="17.2755" y2="28.0333" gradientUnits="userSpaceOnUse">
    <stop stop-color="#004EA9"/>
    <stop offset="1" stop-color="#01F0FF"/>
    </linearGradient>
    </defs>
    </svg>
    