<svg width="38" height="41" viewBox="0 0 38 41" fill="none" xmlns="http://www.w3.org/2000/svg">
    <g filter="url(#filter0_d_2_2192)">
    <path d="M4.60011 0.833328V23.3805H17.6909V0.833328H4.60011ZM20.3091 0.833328V23.3805H33.3998V0.833328H20.3091ZM13.7637 12.1069C14.4863 12.1069 15.0727 12.6681 15.0727 13.3595C15.0727 14.051 14.4863 14.6121 13.7637 14.6121C13.041 14.6121 12.4546 14.051 12.4546 13.3595C12.4546 12.6681 13.041 12.1069 13.7637 12.1069ZM24.2363 12.1069C24.9589 12.1069 25.5454 12.6681 25.5454 13.3595C25.5454 14.051 24.9589 14.6121 24.2363 14.6121C23.5137 14.6121 22.9272 14.051 22.9272 13.3595C22.9272 12.6681 23.5137 12.1069 24.2363 12.1069ZM5.88873 25.8686C5.82531 25.8699 5.76208 25.8756 5.69953 25.8857H4.60011V27.1383V30.8962C4.59765 31.0622 4.6297 31.227 4.69439 31.381C4.75907 31.535 4.85511 31.6752 4.97691 31.7935C5.09871 31.9117 5.24386 32.0055 5.4039 32.0696C5.56394 32.1337 5.7357 32.1667 5.90919 32.1667C6.08267 32.1667 6.25443 32.1337 6.41447 32.0696C6.57452 32.0055 6.71966 31.9117 6.84146 31.7935C6.96326 31.6752 7.0593 31.535 7.12398 31.381C7.18867 31.227 7.22072 31.0622 7.21826 30.8962H30.7817C30.7792 31.0622 30.8113 31.227 30.876 31.381C30.9407 31.535 31.0367 31.6752 31.1585 31.7935C31.2803 31.9117 31.4254 32.0055 31.5855 32.0696C31.7455 32.1337 31.9173 32.1667 32.0908 32.1667C32.2643 32.1667 32.436 32.1337 32.5961 32.0696C32.7561 32.0055 32.9012 31.9117 33.023 31.7935C33.1448 31.6752 33.2409 31.535 33.3056 31.381C33.3702 31.227 33.4023 31.0622 33.3998 30.8962V27.1383V25.8857H32.2928C32.2192 25.874 32.1448 25.8682 32.0703 25.8686C32.0069 25.8699 31.9437 25.8756 31.8811 25.8857H6.11117C6.03767 25.874 5.96325 25.8682 5.88873 25.8686V25.8686Z" fill="url(#paint0_linear_2_2192)"/>
    </g>
    <defs>
    <filter id="filter0_d_2_2192" x="0.599976" y="0.833328" width="36.8" height="39.3333" filterUnits="userSpaceOnUse" color-interpolation-filters="sRGB">
    <feFlood flood-opacity="0" result="BackgroundImageFix"/>
    <feColorMatrix in="SourceAlpha" type="matrix" values="0 0 0 0 0 0 0 0 0 0 0 0 0 0 0 0 0 0 127 0" result="hardAlpha"/>
    <feOffset dy="4"/>
    <feGaussianBlur stdDeviation="2"/>
    <feComposite in2="hardAlpha" operator="out"/>
    <feColorMatrix type="matrix" values="0 0 0 0 0 0 0 0 0 0 0 0 0 0 0 0 0 0 0.5 0"/>
    <feBlend mode="normal" in2="BackgroundImageFix" result="effect1_dropShadow_2_2192"/>
    <feBlend mode="normal" in="SourceGraphic" in2="effect1_dropShadow_2_2192" result="shape"/>
    </filter>
    <linearGradient id="paint0_linear_2_2192" x1="19" y1="0.833328" x2="19" y2="32.1667" gradientUnits="userSpaceOnUse">
    <stop stop-color="#005DA6"/>
    <stop offset="1" stop-color="#22C1ED"/>
    </linearGradient>
    </defs>
    </svg>
    